# xmcd
#
# Track frame offsets: 
#        187
#        13337
#        29562
#        44842
#        60502
#        77287
#        95662
#        111047
#        125907
#        141022
#        152472
#
# Disc length: 2211 seconds
#
# Revision: 2
# Processed by: cddbd v1.5.1PL2 Copyright (c) Steve Scherf et al.
# Submitted via: ExactAudioCopy v0.95b4
#
DISCID=9208a10b
DTITLE=The Bellamy Brothers - Greatest Hits Volume III
DYEAR=1989
DGENRE=Country
TTITLE0=Hillbilly Hell
TTITLE1=Crazy From The Heart
TTITLE2=The Center Of My Universe
TTITLE3=Kids Of The Baby Boom
TTITLE4=Santa Fe
TTITLE5=I'll Give You All My Love Tonight
TTITLE6=You'll Never Be Sorry
TTITLE7=Rebels Without A Clue
TTITLE8=Big Love
TTITLE9=Country Rap
TTITLE10=You're My Favorite Star
EXTD=
EXTT0=
EXTT1=
EXTT2=
EXTT3=
EXTT4=
EXTT5=
EXTT6=
EXTT7=
EXTT8=
EXTT9=
EXTT10=
PLAYORDER=
